<svg width="24" height="24" viewBox="0 0 24 24" fill="none" xmlns="http://www.w3.org/2000/svg">
<path d="M2.50028 8.27834V18.3849C2.50028 18.8317 2.67775 19.2601 2.99364 19.576C3.30953 19.8919 3.73797 20.0694 4.1847 20.0694H6.17537L7.27787 21.815C7.314 21.8716 7.36383 21.918 7.42273 21.9502C7.48163 21.9823 7.5477 21.999 7.61479 21.9988C7.68696 22.0044 7.75932 21.9903 7.82407 21.958C7.88882 21.9256 7.94353 21.8762 7.98229 21.815L9.08479 20.0694H14.9038L16.0063 21.815C16.0451 21.8762 16.0998 21.9256 16.1645 21.958C16.2293 21.9903 16.3016 22.0044 16.3738 21.9988C16.527 21.9988 16.6495 21.9375 16.7107 21.815L17.8132 20.0694H20.0184C20.4651 20.0694 20.8936 19.8919 21.2094 19.576C21.5253 19.2601 21.7028 18.8317 21.7028 18.3849V8.27826C21.6948 7.83686 21.5138 7.41626 21.1987 7.10697C20.8837 6.79768 20.4599 6.62443 20.0184 6.62451H13.6175L17.3232 2.91875L16.4045 2L12.1168 6.28767L7.76804 2L6.84912 2.91875L10.5243 6.59392H4.21528C3.98893 6.58977 3.76405 6.6313 3.55411 6.71602C3.34416 6.80074 3.15344 6.92691 2.99335 7.08699C2.83327 7.24708 2.7071 7.4378 2.62238 7.64774C2.53766 7.85769 2.49613 8.08257 2.50028 8.30892V8.27834Z" fill="black"/>
</svg>
